{"title":"Midnight.in.the.Garden.of.Good.and.Evil.1997.720p.BluRay.x264 . ","uid":8324502,"size":2318961974,"categoryP":"video","categoryS":"hd___movies","magnet":"?xt=urn:btih:be9db5c4c2f8f24d295f96433fc739435f01e57f&amp;dn=Midnight.in.the.Garden.of.Good.and.Evil.1997.720p.BluRay.x264+.+&amp;tr=udp%3A%2F%2Ftracker.openbittorrent.com%3A80&amp;tr=udp%3A%2F%2Fopen.demonii.com%3A1337&amp;tr=udp%3A%2F%2Ftracker.coppersurfer.tk%3A6969&amp;tr=udp%3A%2F%2Fexodus.desync.com%3A6969","seeders":12,"leechers":1,"uploader":".NVEE","files":9,"time":1364763573,"description":"FULL_INFO\n\nMidnight.in.the.Garden.of.Good.and.Evil.1997.720p.BluRay.x264 . NVEE\nFormat : MPEG-4 \nFormat profile : Base Media \nCodec ID : isom \nFile size : 2.16 GiB \nDuration : 2h 28mn \nOverall bit rate : 2 077 Kbps \nEncoded date : UTC 2013-03-23 21:26:59 \nTagged date : UTC 2013-03-23 21:26:59 \n\nVideo \n\nID : 1 \nFormat : AVC \nFormat/Info : Advanced Video Codec \nFormat profile : &lt;a class=&quot;__cf_email__&quot; href=&quot;/cdn-cgi/l/email-protection&quot; data-cfemail=&quot;88c0e1efe0c8c4bba6b9&quot;&gt;[email&amp;#160;protected]&lt;/a&gt;&lt;script cf-hash='f9e31' type=&quot;text/javascript&quot;&gt;\n/* &lt;![CDATA[ */!function(){try{var t=&quot;currentScript&quot;in document?document.currentScript:function(){for(var t=document.getElementsByTagName(&quot;script&quot;),e=t.length;e--;)if(t[e].getAttribute(&quot;cf-hash&quot;))return t[e]}();if(t&amp;&amp;t.previousSibling){var e,r,n,i,c=t.previousSibling,a=c.getAttribute(&quot;data-cfemail&quot;);if(a){for(e=&quot;&quot;,r=parseInt(a.substr(0,2),16),n=2;a.length-n;n+=2)i=parseInt(a.substr(n,2),16)^r,e+=String.fromCharCode(i);e=document.createTextNode(e),c.parentNode.replaceChild(e,c)}}}catch(u){}}();/* ]]&gt; */&lt;/script&gt; \nFormat settings, CABAC : Yes \nFormat settings, ReFrames : 4 frames \nCodec ID : avc1 \nCodec ID/Info : Advanced Video Coding \nDuration : 2h 28mn \nBit rate : 1 690 Kbps \nMaximum bit rate : 6 546 Kbps \nWidth : 1 024 pixels \nHeight : 576 pixels \nDisplay aspect ratio : 16:9 \nOriginal display aspect ratio : 16:9 \nFrame rate mode : Constant \nFrame rate : 25.000 fps \nColor space : YUV \nChroma subsampling : 4:2:0 \nBit depth : 8 bits \nScan type : Progressive \nBits/(Pixel*Frame) : 0.115 \nStream size : 1.76 GiB (81%) \n\nAudio \n\nID : 2 \nFormat : AC-3 \nFormat/Info : Audio Coding 3 \nMode extension : CM (complete main) \nFormat settings, Endianness : Big \nCodec ID : ac-3 \nDuration : 2h 28mn \nBit rate mode : Constant \nBit rate : 384 Kbps \nChannel(s) : 6 channels \nChannel positions : Front: L C R, Side: L R, LFE \nSampling rate : 48.0 KHz \nBit depth : 16 bits \nCompression mode : Lossy \nDelay relative to video : 80ms \nStream size : 409 MiB (18%) \nTitle : NVEE - [1] English.ac3#trackID=1:lang=&lt;a class=&quot;__cf_email__&quot; href=&quot;/cdn-cgi/l/email-protection&quot; data-cfemail=&quot;e0858ea0a7b0a1a3d0ced5ced1cda4a5b6cd928596d4d2d8d3&quot;&gt;[email&amp;#160;protected]&lt;/a&gt;&lt;script cf-hash='f9e31' type=&quot;text/javascript&quot;&gt;\n/* &lt;![CDATA[ */!function(){try{var t=&quot;currentScript&quot;in document?document.currentScript:function(){for(var t=document.getElementsByTagName(&quot;script&quot;),e=t.length;e--;)if(t[e].getAttribute(&quot;cf-hash&quot;))return t[e]}();if(t&amp;&amp;t.previousSibling){var e,r,n,i,c=t.previousSibling,a=c.getAttribute(&quot;data-cfemail&quot;);if(a){for(e=&quot;&quot;,r=parseInt(a.substr(0,2),16),n=2;a.length-n;n+=2)i=parseInt(a.substr(n,2),16)^r,e+=String.fromCharCode(i);e=document.createTextNode(e),c.parentNode.replaceChild(e,c)}}}catch(u){}}();/* ]]&gt; */&lt;/script&gt; \nLanguage : English \n\n\nMULTI_SUBS_English_Swedish_French_Hungarian_.srt\n\n\nPlot\n\nMidnight in the Garden of Good and Evil is a 1997 American drama film directed by Clint Eastwood, and an adaptation of the book of the same name which was based on real-life events that took place in Savannah, Georgia in the 1980s. The film features Kevin Spacey as Jim Williams and John Cusack as John Kelso.\nSeveral changes were made from the book. Many of the more colorful characters were eliminated or made into composite characters. The reporter, played by John Cusack, was based upon Berendt, but was given a love interest not featured in the book, played by Eastwood's daughter Alison Eastwood. The multiple Williams trials were combined into one on-screen trial. Jim Williams' real life attorney Sonny Seiler appeared in the movie in the role of Judge White, the presiding judge at the trial.\nAdvertising for the film became a source of controversy when Warner Bros. used elements of Jack Leigh's famous photograph in its movie posters without his permission.","torrent":{"xt":"urn:btih:be9db5c4c2f8f24d295f96433fc739435f01e57f","amp;dn":"Midnight.in.the.Garden.of.Good.and.Evil.1997.720p.BluRay.x264+.+","amp;tr":["udp%3A%2F%2Ftracker.openbittorrent.com%3A80","udp%3A%2F%2Fopen.demonii.com%3A1337","udp%3A%2F%2Ftracker.coppersurfer.tk%3A6969","udp%3A%2F%2Fexodus.desync.com%3A6969"],"infoHash":"be9db5c4c2f8f24d295f96433fc739435f01e57f","infoHashBuffer":{"type":"Buffer","data":[190,157,181,196,194,248,242,77,41,95,150,67,63,199,57,67,95,1,229,127]},"announce":[],"urlList":[]}}